<svg width="167" height="22" viewBox="0 0 167 22" fill="none" xmlns="http://www.w3.org/2000/svg">
<g clip-path="url(#clip0_1_2)">
<path d="M12.04 12.92C15.6078 12.92 18.5 10.0278 18.5 6.46C18.5 2.89224 15.6078 0 12.04 0C8.47224 0 5.58 2.89224 5.58 6.46C5.58 10.0278 8.47224 12.92 12.04 12.92Z" fill="url(#paint0_linear_1_2)"/>
<path d="M2.59 8.65H1.5V14.21H2.59V8.65Z" fill="#2B2B2B"/>
<path d="M12.42 7.01H0.410004V8.1H12.42V7.01Z" fill="#2B2B2B"/>
<path d="M11.87 5.37H1.5V6.46H11.87V5.37Z" fill="#2B2B2B"/>
<path d="M4.78001 2.64C4.94276 2.25218 5.22362 1.92554 5.58268 1.70651C5.94173 1.48749 6.3607 1.38723 6.78001 1.42C7.17853 1.36803 7.58231 1.46331 7.91557 1.68794C8.24882 1.91256 8.48864 2.2511 8.59 2.64H4.78001Z" fill="#2B2B2B"/>
<path d="M1.50001 5.06C1.5144 4.56725 1.71027 4.09718 2.05001 3.74C2.59001 3.19 4.78001 3.08 4.78001 3.08L9.14001 3.19C9.71891 3.25756 10.2774 3.44486 10.78 3.74C11.87 4.28 11.87 5.06 11.87 5.06H1.50001Z" fill="#2B2B2B"/>
<path d="M11.33 8.65H10.24V14.59H11.33V8.65Z" fill="#2B2B2B"/>
<path d="M41.86 18.24H42.16C43.08 18.24 43.41 17.87 43.41 16.86V5.59C43.41 4.85 43.33 4.59 42.41 4.59H41.85V4.41H44.64L50.38 15.6C50.5317 15.8597 50.6366 16.144 50.69 16.44H50.79C50.8395 16.1472 50.9339 15.8639 51.07 15.6L56.71 4.41H59.71V4.59H59.11C58.05 4.59 58 5.02 58 5.97V16.86C58 17.86 58.35 18.24 59.29 18.24H59.74V18.46H54.48V18.28H55.21C56.11 18.28 56.44 17.96 56.44 17.09V6.86C56.44 6.55 56.44 6.22 56.44 6H56.3C56.3 6.06 56.14 6.39 55.95 6.8L50.13 18.46L50.07 18.6L49.98 18.46L44.11 6.97C43.9855 6.71013 43.898 6.43412 43.85 6.15H43.77C43.783 6.37315 43.783 6.59686 43.77 6.82V17.01C43.77 17.88 44.11 18.2 45.02 18.2H45.75V18.46H41.85L41.86 18.24Z" fill="#2B2B2B"/>
<path d="M65.45 7.11C63.45 7.11 62.39 8.25 62.31 9.77L62.25 10.98H61.89L62.11 6.37H62.31L62.25 7.37C62.2419 7.57864 62.2151 7.78613 62.17 7.99H62.31C62.3889 7.81951 62.5011 7.66652 62.64 7.54C63.4564 6.96693 64.4327 6.66598 65.43 6.68C68.55 6.68 70.63 8.1 70.63 10.24V16.95C70.63 17.74 70.69 17.95 71.29 17.95H71.7H72.04V18.13C71.2926 18.1885 70.5544 18.3328 69.84 18.56V18.46C69.8187 17.868 69.7451 17.279 69.62 16.7C69.5356 16.2808 69.4788 15.8566 69.45 15.43H69.25C68.9591 16.3658 68.3714 17.1813 67.5757 17.7533C66.78 18.3252 65.8196 18.6224 64.84 18.6C62.31 18.6 60.61 17.35 60.61 15.49C60.61 13.35 62.3 11.92 64.82 11.92C66.47 11.92 67.82 12.92 67.82 14.14C67.8213 14.2551 67.7998 14.3693 67.7567 14.476C67.7135 14.5827 67.6497 14.6798 67.5687 14.7617C67.4878 14.8435 67.3915 14.9085 67.2853 14.9528C67.1791 14.9972 67.0651 15.02 66.95 15.02V14.1C66.9065 13.5782 66.6601 13.0942 66.2638 12.752C65.8674 12.4098 65.3526 12.2368 64.83 12.27C63.28 12.27 62.24 13.53 62.24 15.43C62.2326 15.7969 62.303 16.1612 62.4465 16.4989C62.59 16.8366 62.8034 17.1401 63.0726 17.3895C63.3418 17.6389 63.6608 17.8284 64.0085 17.9457C64.3562 18.063 64.7247 18.1054 65.09 18.07C66.1422 18.0568 67.1468 17.6296 67.8862 16.8809C68.6255 16.1322 69.0401 15.1223 69.04 14.07V10.07C69.05 8.29 67.61 7.11 65.45 7.11Z" fill="#2B2B2B"/>
<path d="M78.29 19.46L78.63 18.46C78.6968 18.2983 78.7308 18.1249 78.73 17.95C78.7271 17.7465 78.6829 17.5458 78.6 17.36L74.15 8.24C73.72 7.36 73.54 7.03 72.94 7.03H72.63V6.86H76.54V7.03H75.08C75.36 7.13 75.59 7.59 75.77 7.95L79.27 15.12C79.3696 15.3816 79.4172 15.6602 79.41 15.94H79.55L82.44 8.2C82.525 8.01042 82.5758 7.80729 82.59 7.6C82.59 7.25 82.36 6.99 81.59 6.99H80.66V6.82H84.14V6.97H83.98C83.31 6.97 83.13 7.34 82.81 8.2L78.68 19.46C78.03 21.05 77 21.87 75.95 21.87C75.3417 21.8647 74.7603 21.6187 74.333 21.1858C73.9057 20.7528 73.6673 20.1683 73.67 19.56C73.6785 19.2531 73.7515 18.9513 73.8841 18.6744C74.0168 18.3975 74.2062 18.1516 74.44 17.9526C74.6739 17.7537 74.947 17.6061 75.2416 17.5195C75.5362 17.4329 75.8457 17.4092 76.15 17.45H76.56C76.5619 17.5669 76.5392 17.6829 76.4932 17.7904C76.4472 17.8979 76.379 17.9945 76.2931 18.0738C76.2072 18.1531 76.1055 18.2133 75.9947 18.2506C75.8838 18.2879 75.7664 18.3013 75.65 18.29C74.65 18.29 74.03 18.8 74.03 19.56C74.03 20.32 74.92 21.05 76.03 21.05C76.532 21.085 77.0308 20.946 77.4424 20.6564C77.854 20.3669 78.1533 19.9444 78.29 19.46Z" fill="#2B2B2B"/>
<path d="M89.33 7.11C87.33 7.11 86.27 8.25 86.19 9.77L86.13 10.98H85.77L85.99 6.37H86.19L86.13 7.37C86.1219 7.57864 86.0951 7.78613 86.05 7.99H86.19C86.2645 7.81955 86.3735 7.66635 86.51 7.54C87.3309 6.96861 88.3099 6.66794 89.31 6.68C92.43 6.68 94.5 8.1 94.5 10.24V16.95C94.5 17.74 94.57 17.95 95.17 17.95H95.58H95.92V18.13C95.1726 18.1885 94.4344 18.3328 93.72 18.56V18.46C93.6937 17.8684 93.6201 17.2799 93.5 16.7C93.4156 16.2808 93.3588 15.8566 93.33 15.43H93.13C92.8391 16.3658 92.2514 17.1813 91.4557 17.7533C90.66 18.3252 89.6997 18.6224 88.72 18.6C86.18 18.6 84.49 17.35 84.49 15.49C84.49 13.35 86.18 11.92 88.7 11.92C90.35 11.92 91.7 12.92 91.7 14.14C91.7013 14.2551 91.6798 14.3693 91.6367 14.476C91.5936 14.5827 91.5297 14.6798 91.4488 14.7617C91.3678 14.8435 91.2715 14.9085 91.1653 14.9528C91.0591 14.9972 90.9451 15.02 90.83 15.02V14.1C90.7866 13.5782 90.5402 13.0942 90.1438 12.752C89.7474 12.4098 89.2326 12.2368 88.71 12.27C87.16 12.27 86.12 13.53 86.12 15.43C86.1127 15.7969 86.183 16.1612 86.3265 16.4989C86.47 16.8366 86.6834 17.1401 86.9526 17.3895C87.2218 17.6389 87.5407 17.8284 87.8885 17.9457C88.2362 18.063 88.6047 18.1054 88.97 18.07C90.0222 18.0568 91.0268 17.6296 91.7662 16.8809C92.5055 16.1322 92.9201 15.1223 92.92 14.07V10.07C92.98 8.29 91.49 7.11 89.33 7.11Z" fill="#2B2B2B"/>
<path d="M99.64 14.46C99.64 15.46 99.64 16.46 99.64 18.88H98.11V4.14C98.1167 4.05951 98.1053 3.97854 98.0765 3.90306C98.0478 3.82758 98.0025 3.75951 97.944 3.70386C97.8854 3.64821 97.8152 3.60639 97.7383 3.58149C97.6615 3.55659 97.58 3.54925 97.5 3.56H96.55V3.38H97.7C98.53 3.38 99.52 3.15 99.52 2.38V2.3H99.69V6.3C99.661 7.86899 99.5408 9.43496 99.33 10.99H99.44C99.7572 9.85248 100.421 8.84184 101.338 8.09824C102.255 7.35463 103.381 6.91489 104.56 6.84C108.21 6.84 110.65 9.2 110.65 12.74C110.64 13.534 110.472 14.318 110.156 15.0466C109.841 15.7752 109.384 16.4339 108.812 16.9846C108.239 17.5353 107.564 17.9669 106.824 18.2545C106.084 18.5421 105.294 18.6799 104.5 18.66C102.35 18.66 100.6 17.27 100.6 15.57C100.659 14.6457 101.081 13.7823 101.774 13.1679C102.467 12.5535 103.375 12.238 104.3 12.29H104.7C104.69 12.5217 104.588 12.7399 104.418 12.8972C104.247 13.0545 104.022 13.1381 103.79 13.13C102.09 13.13 100.96 14.13 100.96 15.57C100.96 17.01 102.55 18.31 104.5 18.31C107.13 18.31 108.89 15.94 108.89 12.39C108.89 9.52 106.99 7.19 104.64 7.19C103.378 7.2529 102.181 7.77064 101.271 8.64751C100.361 9.52438 99.7996 10.7011 99.69 11.96V14.16L99.64 14.46Z" fill="#2B2B2B"/>
<path d="M116.98 7.11C114.98 7.11 113.92 8.25 113.84 9.77L113.78 10.98H113.42L113.64 6.37H113.84L113.78 7.37C113.772 7.57864 113.745 7.78613 113.7 7.99H113.84C113.915 7.81955 114.023 7.66635 114.16 7.54C114.981 6.96861 115.96 6.66794 116.96 6.68C120.07 6.68 122.15 8.1 122.15 10.24V16.95C122.15 17.74 122.22 17.95 122.82 17.95H123.22H123.57V18.13C122.823 18.1885 122.084 18.3328 121.37 18.56V18.46C121.344 17.8684 121.27 17.2799 121.15 16.7C121.067 16.2907 121.01 15.8765 120.98 15.46H120.78C120.489 16.3957 119.901 17.2113 119.106 17.7832C118.31 18.3552 117.35 18.6524 116.37 18.63C113.83 18.63 112.14 17.38 112.14 15.52C112.14 13.38 113.83 11.95 116.35 11.95C118 11.95 119.35 12.95 119.35 14.17C119.351 14.2851 119.33 14.3993 119.287 14.506C119.244 14.6127 119.18 14.7098 119.099 14.7917C119.018 14.8735 118.921 14.9385 118.815 14.9828C118.709 15.0272 118.595 15.05 118.48 15.05V14.13C118.437 13.6082 118.19 13.1242 117.794 12.782C117.397 12.4398 116.883 12.2668 116.36 12.3C114.81 12.3 113.77 13.56 113.77 15.46C113.763 15.8269 113.833 16.1912 113.977 16.5289C114.12 16.8666 114.333 17.1701 114.603 17.4195C114.872 17.6689 115.191 17.8584 115.538 17.9757C115.886 18.093 116.255 18.1354 116.62 18.1C117.672 18.0868 118.677 17.6596 119.416 16.9109C120.156 16.1622 120.57 15.1523 120.57 14.1V10.1C120.59 8.29 119.15 7.11 116.98 7.11Z" fill="#2B2B2B"/>
<path d="M123.98 18.24C124.26 18.24 124.78 17.75 125.44 16.72L130.68 8.52C131.002 7.95527 131.517 7.52563 132.13 7.31V7.25H128.23C126.29 7.25 125.42 7.6 125.29 9.53V9.92H125.15L125.38 5.77H125.52L125.46 7.08C125.6 6.95 125.66 6.91 125.98 6.91H133.85V7.08C133.63 7.08 133.14 7.54 132.45 8.61L127.22 16.77C126.955 17.2313 126.617 17.6466 126.22 18V18.06H126.98C130.14 18.06 134.98 19.6 138.9 19.6C141.08 19.6 143.04 19.19 144.19 17.96L144.32 18.08C143.5 19.0346 142.485 19.8019 141.343 20.3299C140.201 20.8578 138.958 21.1341 137.7 21.14C133.96 21.14 130.02 18.41 127.06 18.41H123.98V18.24ZM141.68 9.67C141.68 8.01 140.88 7.09 139.39 7.09C137.39 7.09 136.23 8.25 136.16 9.77L136.09 10.2H135.73L135.95 6.37H136.16L136.09 7.37C136.082 7.57864 136.055 7.78613 136.01 7.99H136.16C136.231 7.81751 136.34 7.66357 136.48 7.54C137.336 6.97087 138.342 6.67131 139.37 6.68C141.92 6.68 143.29 7.79 143.29 9.84V15.46C143.29 16.24 143.36 16.46 143.96 16.46H144.37H144.71V16.63C143.948 16.7003 143.194 16.8443 142.46 17.06V16.91C142.46 16.03 142.1 14.56 142.08 13.91H141.88C141.27 16.25 139.94 17.07 138.48 17.07C136.19 17.07 134.66 15.95 134.66 14.26C134.66 12.26 136.83 10.98 140.08 10.98H141.66L141.68 9.67ZM140.2 11.27C137.94 11.27 136.44 12.44 136.44 14.2C136.422 14.5062 136.47 14.8126 136.58 15.099C136.689 15.3855 136.858 15.6455 137.075 15.8619C137.293 16.0783 137.553 16.2461 137.84 16.3544C138.127 16.4627 138.434 16.5089 138.74 16.49C140.16 16.49 141.68 15.24 141.68 12.49V11.32L140.2 11.27Z" fill="#2B2B2B"/>
<path d="M150.42 7.11C148.42 7.11 147.36 8.25 147.28 9.77L147.22 10.98H146.86L147.08 6.37H147.28L147.22 7.37C147.212 7.57864 147.185 7.78613 147.14 7.99H147.28C147.355 7.81955 147.463 7.66635 147.6 7.54C148.421 6.96861 149.4 6.66794 150.4 6.68C153.51 6.68 155.59 8.1 155.59 10.24V16.95C155.59 17.74 155.65 17.95 156.26 17.95H156.66H157.01V18.13C156.259 18.1897 155.518 18.3339 154.8 18.56V18.46C154.777 17.8686 154.707 17.2801 154.59 16.7C154.506 16.2808 154.449 15.8566 154.42 15.43H154.22C153.929 16.3658 153.341 17.1813 152.546 17.7533C151.75 18.3252 150.79 18.6224 149.81 18.6C147.27 18.6 145.58 17.35 145.58 15.49C145.58 13.35 147.27 11.92 149.79 11.92C151.44 11.92 152.79 12.92 152.79 14.14C152.791 14.2551 152.77 14.3693 152.727 14.476C152.684 14.5827 152.62 14.6798 152.539 14.7617C152.458 14.8435 152.361 14.9085 152.255 14.9528C152.149 14.9972 152.035 15.02 151.92 15.02V14.1C151.877 13.5782 151.63 13.0942 151.234 12.752C150.837 12.4098 150.323 12.2368 149.8 12.27C148.25 12.27 147.21 13.53 147.21 15.43C147.203 15.7969 147.273 16.1612 147.417 16.4989C147.56 16.8366 147.773 17.1401 148.043 17.3895C148.312 17.6389 148.631 17.8284 148.978 17.9457C149.326 18.063 149.695 18.1054 150.06 18.07C151.121 18.07 152.138 17.6486 152.888 16.8984C153.639 16.1483 154.06 15.1309 154.06 14.07V10.07C153.98 8.29 152.58 7.11 150.42 7.11Z" fill="#2B2B2B"/>
<path d="M159.52 8.62C159.52 8.53379 159.503 8.44847 159.469 8.3693C159.434 8.29014 159.384 8.21882 159.322 8.15976C159.259 8.1007 159.184 8.05517 159.103 8.02597C159.022 7.99677 158.936 7.98453 158.85 7.99H158.78L157.58 8.09V7.97L159.14 7.66C159.95 7.5 160.78 7.03 160.78 6.23V6.16H160.94V8.72C160.95 9.32066 160.897 9.92071 160.78 10.51H160.94C161.47 8.1 162.86 6.7 164.54 6.7C164.88 6.69628 165.218 6.75038 165.54 6.86C165.715 6.91485 165.869 7.0237 165.978 7.17099C166.088 7.31828 166.148 7.49644 166.15 7.68C166.145 7.91349 166.049 8.13583 165.883 8.30003C165.717 8.46424 165.494 8.55746 165.26 8.56C165.024 8.56013 164.797 8.46838 164.627 8.30416C164.457 8.13994 164.358 7.91611 164.35 7.68C164.35 7.51935 164.399 7.36254 164.49 7.23C162.49 7.23 161.07 9.42 161.07 12.7V17.21C161.069 17.3493 161.098 17.4871 161.154 17.6147C161.21 17.7423 161.291 17.8568 161.394 17.9509C161.497 18.0451 161.618 18.1167 161.75 18.1614C161.882 18.206 162.021 18.2225 162.16 18.21H163.44V18.46H157.71V18.28H158.42C158.559 18.3018 158.702 18.2915 158.837 18.2501C158.972 18.2086 159.095 18.137 159.199 18.0406C159.302 17.9442 159.381 17.8257 159.432 17.6939C159.482 17.5621 159.502 17.4206 159.49 17.28L159.52 8.62Z" fill="#2B2B2B"/>
<path d="M26.44 11.55C26.2234 11.018 26.0495 10.4696 25.92 9.91C25.9186 9.75481 25.8984 9.60036 25.86 9.45C25.8593 9.27911 25.8148 9.11126 25.7308 8.96245C25.6467 8.81365 25.526 8.68886 25.38 8.6L25.31 8.54C25.0591 8.35634 24.7638 8.24285 24.4544 8.21122C24.1451 8.17958 23.8329 8.23094 23.55 8.36C23.2436 8.54781 22.9802 8.79803 22.7769 9.09437C22.5736 9.39071 22.4349 9.72655 22.37 10.08C22.158 11.0283 22.158 12.0117 22.37 12.96C22.45 13.32 22.56 13.65 22.66 13.96C15.46 15.56 6.58 15.11 0.0100021 14.44C0.0100021 14.44 0.560002 19.84 1.51 20.17C2.46 20.5 23.14 20.75 24.78 20.17C24.8928 20.1345 24.9956 20.0728 25.08 19.99C25.2435 19.9092 25.3869 19.7931 25.5 19.65C25.7573 19.2927 25.9396 18.887 26.0359 18.4573C26.1321 18.0276 26.1403 17.5829 26.06 17.15C25.8796 16.1347 25.4841 15.1698 24.9 14.32C24.1978 13.1114 23.9033 11.7089 24.06 10.32H24.16H24.27C24.36 10.32 24.47 10.4 24.58 10.46L24.7 10.56H24.75C25.0607 10.7905 25.3311 11.071 25.55 11.39C25.7544 11.6391 25.9447 11.8996 26.12 12.17C26.1284 12.1804 26.1391 12.1889 26.1512 12.1946C26.1633 12.2004 26.1766 12.2034 26.19 12.2034C26.2034 12.2034 26.2167 12.2004 26.2288 12.1946C26.2409 12.1889 26.2516 12.1804 26.26 12.17C26.3362 12.0878 26.3921 11.9889 26.4234 11.8813C26.4546 11.7737 26.4603 11.6602 26.44 11.55Z" fill="#2B2B2B"/>
</g>
<defs>
<linearGradient id="paint0_linear_1_2" x1="5.57" y1="6.46" x2="18.5" y2="6.46" gradientUnits="userSpaceOnUse">
<stop stop-color="#F39200"/>
<stop offset="1" stop-color="#F9B233"/>
</linearGradient>
<clipPath id="clip0_1_2">
<rect width="166.18" height="21.9" fill="white"/>
</clipPath>
</defs>
</svg>
